<svg width="70" height="15" viewBox="0 0 70 15" fill="none" xmlns="http://www.w3.org/2000/svg">
<mask id="mask0_1138_7703" style="mask-type:luminance" maskUnits="userSpaceOnUse" x="0" y="0" width="70" height="15">
<path d="M69.7512 0.266602H0.963867V14.5336H69.7512V0.266602Z" fill="white"/>
</mask>
<g mask="url(#mask0_1138_7703)">
<path fill-rule="evenodd" clip-rule="evenodd" d="M25.1665 2.30793C23.3265 2.98204 23.5676 5.07573 25.5736 5.83952C26.5575 6.21403 26.796 6.42957 26.796 6.94572C26.796 7.88021 25.6398 8.20071 24.6391 7.54392C24.2712 7.3024 24.0644 7.26979 23.9064 7.42825C23.2944 8.04123 24.8801 9.03839 26.1035 8.80859C28.1789 8.41828 28.3144 5.88946 26.3007 5.11904C25.0809 4.6518 24.6529 4.17283 24.9535 3.6103C25.195 3.15783 26.0454 3.03809 26.585 3.3805C26.6666 3.42127 26.7562 3.44215 26.8474 3.44114C26.9381 3.44012 27.0278 3.41719 27.1083 3.3749C27.1883 3.3321 27.2576 3.27095 27.3096 3.19656C27.3621 3.12166 27.3957 3.03554 27.4079 2.94536C27.4079 2.51939 25.8207 2.06865 25.167 2.30793M30.4651 2.52142C28.8851 3.31528 29.1205 4.80771 30.9731 5.7366C32.247 6.37555 32.5996 6.96254 32.0834 7.58519C31.7517 7.9862 30.6827 7.95817 30.2185 7.53678C29.8629 7.21425 29.8175 7.21527 29.4894 7.54647C28.7658 8.27663 30.8784 9.20093 32.1058 8.69139C33.8938 7.94951 33.6895 6.00308 31.7242 5.05891C30.6985 4.56619 30.565 4.43218 30.565 3.89462C30.565 3.20012 31.2992 2.96319 32.1089 3.39732C32.4584 3.58483 32.5889 3.57667 32.727 3.3591C33.0164 2.90103 32.9389 2.76855 32.2011 2.45977C31.3191 2.09097 31.3247 2.09097 30.4651 2.52142ZM44.6577 2.45977C41.5481 3.57107 41.9353 8.31434 45.1759 8.80094C46.4839 8.99762 47.2508 8.71432 47.3343 8.0025C47.394 7.49704 47.3593 7.46341 46.9914 7.6606C45.7033 8.35153 43.8456 7.51895 43.5862 6.13403C43.2015 4.07959 44.9049 2.6432 46.8477 3.38356C47.3196 3.56342 47.3705 3.5354 47.3705 3.08701C47.3705 2.29076 46.0101 1.97622 44.6577 2.45977ZM18.1889 5.43138C16.6679 8.80808 16.6419 8.9003 17.2177 8.9003C17.4827 8.9003 17.7629 8.62158 18.0365 8.08402C18.4513 7.26928 18.4549 7.26724 19.666 7.26724C20.8772 7.26724 20.8808 7.26928 21.2955 8.08402C21.5498 8.58286 21.855 8.9003 22.0807 8.9003C22.5933 8.9003 22.7314 8.71126 22.5062 8.31688C22.4012 8.13243 21.7246 6.71847 21.0025 5.17458C20.2805 3.63068 19.662 2.37009 19.6273 2.37366C19.5922 2.37672 18.9455 3.75246 18.1889 5.43138ZM36.2682 2.74817C33.3695 4.54224 34.5379 8.89776 37.9186 8.9003C38.5015 8.90897 39.0763 8.7612 39.5838 8.4728C40.0908 8.18389 40.5117 7.76506 40.8036 7.25909C41.0956 6.75312 41.2469 6.17836 41.2433 5.59393C41.2393 5.00949 41.0803 4.43677 40.7817 3.93437C39.9063 2.43786 37.7046 1.85801 36.2682 2.74715M49.6109 5.63367C49.6109 8.76426 49.6283 8.9003 50.0186 8.9003C50.4089 8.9003 50.4262 8.76426 50.4262 5.63367C50.4262 2.50308 50.4089 2.36704 50.0186 2.36704C49.6283 2.36704 49.6109 2.50359 49.6109 5.63367ZM54.4215 3.41872C54.1509 4.03118 53.5084 5.43597 52.9927 6.54217C51.9161 8.8519 51.8952 8.95177 52.5143 8.86311C52.8078 8.82133 53.1064 8.52325 53.3453 8.03256C53.7178 7.26928 53.7224 7.26673 54.9952 7.26673H56.2721L56.64 8.08352C56.9544 8.78158 57.9643 9.32831 57.9643 8.80044C57.9643 8.67152 55.1093 2.50053 54.9993 2.38895C54.9524 2.34258 54.6936 2.80575 54.423 3.4177M58.2461 2.66359C58.0692 3.12523 58.3413 3.38764 58.9956 3.38764H59.5948V6.159C59.5948 8.91508 59.5968 8.92884 60.0529 8.86362C60.4987 8.80044 60.513 8.72349 60.568 6.09378L60.6251 3.38815H61.2309C61.741 3.38815 61.8372 3.30815 61.8372 2.8781C61.8372 2.25606 58.4809 2.05607 58.2481 2.6641M63.6706 5.63418C63.6706 8.84782 63.6813 8.92782 64.0909 8.86362C64.495 8.80094 64.5113 8.67407 64.5113 5.63418C64.5113 2.59429 64.495 2.4669 64.0909 2.40423C63.6813 2.34105 63.6706 2.42054 63.6706 5.63418ZM66.4119 2.62333C66.3543 2.77365 66.3324 4.2248 66.364 5.84767L66.4205 8.79788H68.05C69.5435 8.79788 69.68 8.76375 69.68 8.38924C69.68 8.03562 69.5236 7.97295 68.5086 7.91995L67.3372 7.85881V5.8385H68.4719C70.1493 5.8385 70.0907 4.95497 68.4072 4.85816C67.3387 4.7965 67.3377 4.79548 67.3377 4.10251V3.40853L68.505 3.34738C69.52 3.29439 69.6765 3.23223 69.6765 2.8781C69.6765 2.36398 66.5994 2.1244 66.4083 2.62333M38.9097 3.47426C40.7491 4.24467 40.6248 7.24737 38.7288 7.87461C36.0502 8.76069 34.4599 4.81077 36.9841 3.54203C37.8442 3.10943 38.0231 3.10331 38.9102 3.47426M20.1246 5.27954C20.6021 6.44383 20.5995 6.45097 19.666 6.45097C18.7326 6.45097 18.73 6.44434 19.2075 5.27954C19.6482 4.20544 19.6839 4.20544 20.1246 5.27954ZM55.064 6.41275C54.0133 6.49529 54.0057 6.48001 54.5208 5.30655L54.959 4.30837L55.4166 5.32948L55.8742 6.34906L55.064 6.41377M16.6104 10.1843C16.6104 10.4641 17.5887 12.679 17.7125 12.679C17.9382 12.679 18.6679 10.7035 18.5802 10.3311C18.5354 10.1415 18.4167 10.2582 18.2689 10.6373C17.6809 12.1445 17.7237 12.1241 17.3293 11.0893C17.0435 10.3392 16.6104 9.79454 16.6104 10.1854M20.5735 10.6276C19.9769 11.2258 19.9397 11.7532 20.4492 12.385C20.5807 12.5338 20.7422 12.653 20.9231 12.7346C21.1045 12.8161 21.3006 12.8584 21.4988 12.8584C21.6976 12.8584 21.8937 12.8161 22.0746 12.7346C22.2555 12.653 22.417 12.5338 22.5485 12.385C22.6636 12.2551 22.7523 12.1032 22.8089 11.9392C22.8654 11.7746 22.8894 11.6008 22.8792 11.4271C22.8685 11.2538 22.8241 11.0842 22.7482 10.9277C22.6728 10.7713 22.5668 10.6312 22.4369 10.516C22.3075 10.4009 22.1561 10.3122 21.9921 10.2552C21.828 10.1986 21.6548 10.1747 21.4815 10.1848C21.3083 10.195 21.1391 10.2399 20.9832 10.3158C20.8268 10.3917 20.6877 10.4977 20.5725 10.6276M24.8501 10.6276C24.2539 11.2258 24.2167 11.7532 24.7262 12.385C24.8577 12.5338 25.0192 12.653 25.2001 12.7351C25.3815 12.8166 25.5777 12.8589 25.7764 12.8589C25.9746 12.8589 26.1713 12.8166 26.3522 12.7351C26.5331 12.653 26.6951 12.5338 26.8265 12.385C27.9317 11.0169 26.0928 9.38334 24.8501 10.6276ZM28.8326 11.4541C28.8326 12.2026 28.9212 12.7809 29.0364 12.7809C29.1516 12.7809 29.2423 12.5741 29.2448 12.3213L29.2494 11.8622L29.6387 12.3697C29.8527 12.6484 30.0947 12.81 30.1762 12.7279C30.2578 12.6464 30.162 12.3988 29.9627 12.1787C29.63 11.8098 29.6275 11.7517 29.9301 11.448C30.3413 11.0363 30.3428 10.8523 29.9393 10.4478C29.1923 9.69874 28.8336 10.0259 28.8336 11.4541M34.1297 11.4541V12.7809L34.8935 12.7504C35.508 12.7259 35.5478 12.703 35.0973 12.6347C34.3942 12.5277 34.2566 11.556 34.9445 11.556C35.1687 11.556 35.3521 11.4643 35.3521 11.3517C35.3521 11.2396 35.1687 11.1474 34.9445 11.1474C34.7203 11.1474 34.5373 11.0118 34.5373 10.8411C34.5373 10.6511 34.7294 10.5354 35.0464 10.5354C35.3266 10.5354 35.5559 10.4432 35.5559 10.3311C35.5559 10.2185 35.2349 10.1268 34.8426 10.1268H34.1297V11.4541ZM36.9816 10.2857C37.0539 10.5166 37.1676 10.7326 37.3164 10.9232C37.6277 11.369 37.6267 11.4439 37.2965 12.0034C37.1018 12.3346 37.0096 12.6673 37.0917 12.7437C37.1085 12.7616 37.1294 12.7748 37.1533 12.7814C37.1767 12.7875 37.2012 12.7875 37.2251 12.7809C37.2486 12.7743 37.2695 12.7611 37.2858 12.7432C37.3026 12.7249 37.3138 12.703 37.3184 12.679C37.5961 11.9453 37.7836 11.8602 38.1077 12.3213C38.6019 13.0245 38.8618 12.8675 38.417 12.1343C38.0567 11.5417 38.0501 11.4388 38.3329 10.8905C38.6936 10.192 38.5601 9.88727 38.1688 10.515C37.8351 11.0511 37.6562 11.0567 37.4911 10.5354C37.3673 10.1446 36.9816 9.95504 36.9816 10.2857ZM40.5804 11.3863C40.0826 12.5409 40.0042 13.3587 40.4699 12.5241C40.7226 12.0717 41.8706 12.0314 41.8706 12.4747C41.8706 12.6428 41.9623 12.7809 42.0744 12.7809C42.3771 12.7809 42.3292 12.5389 41.7712 11.2752C41.1521 9.87249 41.2352 9.86536 40.581 11.3863M45.7904 10.9945C45.2646 12.1715 45.2131 12.1797 44.8009 11.1474C44.3592 10.0401 44.2027 10.1171 43.9714 11.556C43.7763 12.7641 43.9877 13.3098 44.2277 12.2194C44.2955 11.9106 44.376 11.5662 44.406 11.4541C44.4366 11.3415 44.6073 11.5942 44.7856 12.0151C45.1856 12.9603 45.232 12.9608 45.7079 12.0324L46.0906 11.2834L46.2312 12.0324C46.3081 12.4441 46.4564 12.7809 46.5604 12.7809C46.7387 12.7809 46.7097 12.4757 46.3657 10.7392L46.2241 10.0248L45.7904 10.9945ZM48.3906 11.4541C48.3906 12.2026 48.4793 12.7809 48.5939 12.7809C48.7091 12.7809 48.7977 12.2026 48.7977 11.4541C48.7977 10.7051 48.7091 10.1268 48.5939 10.1268C48.4793 10.1268 48.3906 10.7051 48.3906 11.4541ZM50.6738 11.4541C50.6927 12.4069 50.7284 12.5939 50.7803 12.0151C50.8766 10.9451 50.9184 10.9446 51.9986 12.0069L52.872 12.866V11.4617C52.872 10.6898 52.8073 10.1232 52.7273 10.2037C52.6478 10.2837 52.6091 10.7122 52.6406 11.156C52.7166 12.2077 52.4832 12.1756 51.4738 10.9945L50.6448 10.0248L50.6738 11.4541ZM54.7048 11.4541V12.7809L55.4691 12.7504C56.0836 12.7259 56.1233 12.703 55.6724 12.6347C54.8913 12.516 54.8459 11.556 55.6214 11.556C55.9017 11.556 56.131 11.4643 56.131 11.3517C56.131 11.2396 55.9017 11.1474 55.6214 11.1474C55.305 11.1474 55.1124 11.0322 55.1124 10.8411C55.1124 10.6506 55.305 10.5354 55.6214 10.5354C55.9017 10.5354 56.131 10.4432 56.131 10.3311C56.131 10.2185 55.81 10.1268 55.4166 10.1268H54.7038V11.4541M57.7594 11.4541C57.7594 12.2026 57.8481 12.7809 57.9633 12.7809C58.0779 12.7809 58.1696 12.5741 58.1737 12.3213L58.1803 11.8622L58.5859 12.3504C58.8096 12.6189 59.0501 12.7804 59.1214 12.7091C59.1923 12.6377 59.0781 12.3871 58.8656 12.1532C58.5044 11.7527 58.5023 11.7145 58.833 11.529C59.5663 11.1168 59.0333 10.1268 58.0784 10.1268C57.8216 10.1268 57.7594 10.3856 57.7594 11.4541ZM61.0062 10.2292C60.9323 10.8192 60.997 12.623 61.0954 12.7213C61.1652 12.7916 61.2222 12.2367 61.2222 11.4877C61.2222 10.4269 61.0826 9.61365 61.0062 10.2292ZM63.0561 11.4113C63.0561 12.1888 63.1442 12.7814 63.2594 12.7814C63.3715 12.7814 63.4632 12.3952 63.4632 11.9229V11.0612L64.337 11.9208C64.817 12.3932 65.2756 12.7799 65.3541 12.7799C65.5798 12.7799 65.5248 10.3698 65.2955 10.2276C65.1706 10.1502 65.0917 10.4783 65.0917 11.076V12.0497L64.0731 11.0444L63.0561 10.0391V11.4093M67.5364 10.5344C67.2918 10.8075 67.1481 11.1565 67.1288 11.5234C67.1288 12.7096 68.6717 13.2859 69.4084 12.3743C69.9333 11.7247 69.8696 11.5514 69.115 11.5784C68.7512 11.5917 68.6136 11.6436 68.8097 11.6956C69.2897 11.8215 69.2622 12.3132 68.7664 12.4711C68.5045 12.5425 68.2253 12.5104 67.9863 12.3815C67.7479 12.2525 67.567 12.037 67.4824 11.7787C67.2506 10.8911 68.4842 10.1364 69.1221 10.7754C69.2546 10.9084 69.4329 10.9471 69.519 10.861C69.7412 10.6378 68.9718 10.1257 68.4149 10.1257C68.0847 10.1589 67.7749 10.3025 67.5364 10.5344ZM22.2733 10.779C22.8027 11.3094 22.2815 12.5756 21.535 12.5756C21.132 12.5756 20.4808 11.9799 20.4808 11.6115C20.4808 10.6898 21.6446 10.1487 22.2733 10.779ZM26.5514 10.779C27.0803 11.3094 26.5595 12.5756 25.8126 12.5756C25.41 12.5756 24.7589 11.9799 24.7589 11.6115C24.7589 10.6898 25.9226 10.1487 26.5514 10.779ZM29.7498 10.9425C29.7462 11.0205 29.7202 11.0954 29.6754 11.1591C29.63 11.2223 29.5673 11.2712 29.495 11.2997C29.3437 11.3502 29.2402 11.2054 29.2402 10.9425C29.2402 10.6791 29.3437 10.5344 29.495 10.5853C29.5673 10.6134 29.63 10.6623 29.6754 10.726C29.7202 10.7892 29.7462 10.8646 29.7498 10.9425ZM58.7418 10.8742C58.643 11.3868 58.1666 11.4572 58.1666 10.9593C58.1666 10.7086 58.2985 10.5344 58.4876 10.5344C58.5294 10.5318 58.5711 10.5395 58.6093 10.5573C58.6476 10.5751 58.6807 10.6022 58.7062 10.6358C58.7311 10.6694 58.7474 10.7086 58.7541 10.7504C58.7602 10.7922 58.7561 10.835 58.7418 10.8742ZM41.4594 11.6059C41.4614 11.69 41.3254 11.7593 41.1567 11.7593C40.8118 11.7593 40.7995 11.7231 40.9814 11.2482C41.1083 10.9165 41.4502 11.1728 41.4589 11.6059" fill="#040404"/>
<path d="M13.4634 13.1017C13.4634 13.1017 11.8364 11.8436 8.81129 10.3558C5.78669 8.86792 3.67466 11.5501 3.67466 11.5501L1.47754 14.5334C3.58855 13.3972 5.95993 12.8347 8.35525 12.9014C12.1788 13.0731 13.4634 13.1017 13.4634 13.1017Z" fill="#999999"/>
<path d="M13.6344 13.1867C13.6344 13.1867 12.0074 11.9286 8.98231 10.4408C5.95771 8.95346 3.50327 9.75445 3.50327 9.75445L1.30615 12.7378C1.30615 12.7378 5.72944 11.6993 8.98282 12.2716C12.2362 12.8433 13.6344 13.1867 13.6344 13.1867Z" fill="#808080"/>
<path d="M13.72 13.2153C13.72 13.2153 12.3717 12.0694 9.49643 10.1031C7.68503 8.90667 5.58472 8.22287 3.41767 8.12402L1.30615 10.8984C3.88338 10.6106 6.4917 10.8342 8.98282 11.5563C13.1208 12.7572 13.72 13.2153 13.72 13.2153Z" fill="#666666"/>
<path d="M13.7201 13.1601C13.7201 13.1601 12.3724 11.8083 9.49655 9.84197C6.62124 7.87567 2.19083 7.23926 2.19083 7.23926L0.963867 9.12607C0.963867 9.12607 4.72985 8.82595 7.92718 10.3561C11.1245 11.8862 13.7201 13.1601 13.7201 13.1601Z" fill="#4D4D4D"/>
<path d="M8.40569 0.266602L16.5007 13.4223H14.3494L8.40569 3.82927L6.37265 6.20881L4.14648 5.4282L8.40569 0.266602Z" fill="#040404"/>
<path d="M13.8053 13.2724C12.6069 11.3902 11.0559 9.75866 9.23837 8.4675C6.36306 6.5012 2.30359 5.40723 2.30359 5.40723L1.01904 7.15188C1.01904 7.15188 4.55828 7.3664 7.75409 8.89653C10.9504 10.4267 13.8053 13.2724 13.8053 13.2724Z" fill="#F6F2EA"/>
</g>
</svg>
