<svg width="36" height="31" viewBox="0 0 36 31" fill="none" xmlns="http://www.w3.org/2000/svg">
<mask id="mask0_1138_7698" style="mask-type:luminance" maskUnits="userSpaceOnUse" x="0" y="0" width="36" height="31">
<path d="M35.9638 0H0.280762V30.8001H35.9638V0Z" fill="white"/>
</mask>
<g mask="url(#mask0_1138_7698)">
<path fill-rule="evenodd" clip-rule="evenodd" d="M16.9327 0.0900143C6.7961 1.36923 1.98941 12.591 8.0852 20.7471C13.8242 28.4264 26.4638 26.5902 29.987 17.5653C33.3818 8.8682 25.9725 -1.05078 16.9327 0.0900143ZM20.9544 3.9995C30.9648 7.56983 28.5537 22.2455 17.9701 22.1619C8.34212 22.0858 5.37479 8.75356 14.0413 4.51033C14.8165 4.13078 15.2297 3.99308 16.5612 3.67045C17.2775 3.49692 20.1476 3.71216 20.9544 3.99988M32.939 4.46391C32.6798 4.63582 32.5791 4.78366 32.6787 4.84564C32.7688 4.90127 32.8417 4.88635 32.8417 4.81243C32.8417 4.73851 33.0066 4.60243 33.2087 4.50988C33.9283 4.18009 34.3314 5.38385 33.6996 5.97555C33.0032 6.62799 32.2388 6.48221 31.8689 5.62732C31.707 5.25257 31.6626 5.21937 31.6581 5.46919C31.6499 5.90925 32.3523 6.57386 32.8248 6.57296C33.9411 6.57134 34.5736 5.41135 33.9482 4.51315C33.6665 4.10862 33.487 4.09975 32.939 4.46327M2.47395 4.49189C2.17609 4.66632 1.70282 5.51152 1.83091 5.64028C1.92744 5.73726 1.91166 5.75706 2.21854 5.15289C2.8552 3.8997 4.60216 4.91764 4.07555 6.23506L3.85094 6.79787L4.14767 6.44503C5.01195 5.41608 3.63684 3.81113 2.4747 4.49215M1.78921 6.98226C2.57424 7.36587 2.37216 7.91415 1.43839 7.93226C0.849812 7.9442 0.833661 7.95479 1.22317 8.07232C1.45492 8.14226 1.734 8.16487 1.84368 8.12261C1.95336 8.08036 2.18173 8.18594 2.3515 8.35651C2.79322 8.8007 3.5527 8.61219 3.5527 8.05793C3.5527 7.98157 3.41861 8.05369 3.25522 8.21817C2.77707 8.69876 2.29103 8.43032 2.38794 7.74099C2.44015 7.37004 3.11211 7.31577 3.51251 7.65051C3.64773 7.76372 3.69994 7.75005 3.69994 7.60194C3.69994 7.47979 3.32321 7.2832 2.77068 7.11654C1.44628 6.71727 1.1672 6.67926 1.78809 6.98264M33.6038 7.33195C33.0828 7.4834 32.6201 7.64401 32.5754 7.6889C32.4067 7.85841 33.0933 7.75057 33.8446 7.48982C34.8061 7.15572 34.8073 7.14287 33.8006 8.29558C32.8451 9.39034 32.9082 9.52514 34.1826 9.11558C34.6927 8.95174 35.2016 8.81764 35.3136 8.81764C35.4255 8.81764 35.5172 8.75349 35.5172 8.67525C35.5172 8.59697 35.205 8.62999 34.811 8.75157C33.1347 9.27101 33.1335 9.26992 34.2529 8.10079C35.4045 6.89749 35.3444 6.8265 33.6038 7.33195ZM21.5719 8.67604C20.6265 9.15111 19.6525 10.1068 18.9073 11.2908C18.2154 12.3893 18.1955 12.2807 18.6586 9.93888C18.7724 9.36322 18.8652 8.80795 18.8652 8.70519C18.8652 8.56738 18.4517 8.51824 17.2918 8.51824C15.6692 8.51824 15.1241 8.80018 16.4241 8.96684C17.2388 9.07141 17.2354 9.27551 16.3456 13.6699C15.9325 15.7091 15.5944 17.4065 15.5944 17.442C15.5944 17.4776 15.9426 17.4862 16.3682 17.4613L17.1419 17.4161L17.5949 15.3224C18.3082 12.0263 20.3474 9.6918 22.2014 10.0483C22.5177 10.1091 22.595 10.0228 22.8685 9.30429C23.3605 8.01053 23.1243 7.89571 21.5719 8.67604ZM0.578245 9.23634C0.578245 9.30568 0.823895 9.42471 1.12438 9.50092C1.91354 9.70104 1.88274 9.92667 1.01508 10.3021C0.595524 10.4836 0.280009 10.6605 0.31419 10.6951C0.34837 10.7297 0.728864 10.6081 1.15894 10.4253L1.94171 10.0928L2.37104 10.6138C2.94121 11.3056 2.9337 11.0376 2.36202 10.3124C1.80123 9.60015 1.79522 9.62044 2.54795 9.68989C3.4434 9.77252 3.17146 9.59245 2.12614 9.41062C1.64273 9.32648 1.09659 9.22451 0.912538 9.18443C0.728489 9.14435 0.57787 9.16749 0.57787 9.23682M34.4305 10.1186C33.792 10.2421 33.2954 10.3699 33.3277 10.4025C33.4367 10.5121 35.815 10.1177 35.815 9.99C35.815 9.84201 35.9025 9.83386 34.4305 10.1186ZM35.821 11.1349C35.7831 11.3321 35.7621 11.5322 35.7583 11.7331L35.741 12.1818L34.7002 12.227C34.1278 12.2518 33.597 12.3347 33.5208 12.4114C33.4021 12.5308 35.7902 12.4467 35.936 12.3263C35.9615 12.3052 35.9566 11.9949 35.9251 11.6368C35.8932 11.2785 35.8466 11.0529 35.8214 11.1352M0.280762 12.3761C0.280762 13.2321 1.08644 13.6992 1.44666 13.0519C1.57774 12.8167 1.60216 12.8167 1.83616 13.0519C2.29216 13.5104 2.65274 13.2678 2.76467 12.4277L2.84731 11.8079H0.280762V12.3761ZM1.44253 12.4435C1.40121 12.8734 1.34449 12.9295 0.949723 12.9295C0.555332 12.9295 0.498241 12.8734 0.457299 12.4435C0.412226 11.9759 0.431005 11.9574 0.949723 11.9574C1.46882 11.9574 1.48722 11.9756 1.44253 12.4435ZM2.61368 12.2021C2.7365 12.5245 2.47245 12.9295 2.13928 12.9295C1.80612 12.9295 1.54206 12.5245 1.66489 12.2021C1.78696 11.8822 2.49161 11.8822 2.61368 12.2021ZM35.8128 13.7147C35.8086 14.4527 35.6648 14.5299 34.4613 14.4394C33.7435 14.3851 33.4907 14.4023 33.7338 14.488C33.9381 14.5604 34.5237 14.6262 35.0345 14.6344L35.9638 14.6493V13.9764C35.9638 13.6063 35.9303 13.3034 35.8894 13.3034C35.8488 13.3034 35.8143 13.4885 35.8128 13.7147ZM0.912538 14.3484C-0.0989809 14.9689 0.390815 16.2942 1.63221 16.2942C2.95774 16.2942 3.47045 14.8516 2.35188 14.2698C1.79109 13.9781 1.48985 13.9946 0.912538 14.3484ZM2.5363 14.5976C3.42312 15.4049 1.91579 16.6217 0.908406 15.9118C0.805113 15.8348 0.721352 15.7346 0.663883 15.6192C0.606039 15.5038 0.575993 15.3765 0.575993 15.2474C0.575993 15.1182 0.606039 14.9909 0.663883 14.8756C0.721352 14.7602 0.805113 14.66 0.908406 14.583C1.34111 14.278 2.19337 14.2856 2.5363 14.5976ZM34.2638 16.0699C34.1304 16.7846 33.4077 16.7846 33.2601 16.0699C33.2083 15.8192 33.1854 15.8356 33.117 16.171C33.0381 16.5586 33.0682 16.5785 34.0722 16.8065C35.462 17.1223 35.433 17.1297 35.6246 16.4076C35.7914 15.7802 35.7572 15.3899 35.5836 15.9364C35.3031 16.8189 35.2512 16.8749 34.8197 16.757C34.4459 16.6551 34.4076 16.5864 34.4516 16.0949C34.5135 15.3982 34.3922 15.3819 34.2638 16.0699ZM32.5713 18.0448C32.3992 18.5141 32.2877 18.9272 32.323 18.9628C32.3583 18.9985 32.4544 18.8499 32.5363 18.6329C32.7189 18.15 32.7489 18.1495 33.9531 18.6057C34.4869 18.8076 34.923 18.9191 34.923 18.8534C34.923 18.7877 34.4497 18.572 33.8712 18.3739C32.8631 18.0289 32.8229 17.997 32.901 17.6028C33.0291 16.9583 32.9112 17.1162 32.5713 18.0448ZM2.21366 18.2823C1.51464 18.6378 1.37191 19.4128 1.85457 20.232C2.11262 20.6703 3.19738 20.1854 2.95924 19.7382C2.75904 19.3619 2.66439 19.3463 2.75791 19.7052C2.80599 19.8907 2.70608 20.0317 2.4394 20.1539C1.75165 20.469 1.42863 19.1914 2.05252 18.6236C2.72599 18.0107 3.52078 18.2356 3.91555 19.1504C4.10222 19.5824 4.13603 19.6066 4.14054 19.311C4.15443 18.4777 3.01971 17.8724 2.21328 18.2823M31.8061 19.7239C31.361 20.5603 31.974 21.1896 32.7046 20.6458C33.5418 20.0232 34.168 20.4197 33.6846 21.2669C33.5268 21.5436 33.5013 21.681 33.6151 21.6428C34.0245 21.5055 34.1916 20.6787 33.8859 20.3059L33.6 19.958L33.0055 20.2945C32.0476 20.8367 31.5184 20.5633 32.024 19.7874C32.1498 19.5934 32.1874 19.4345 32.1066 19.4345C32.0259 19.4345 31.891 19.5646 31.8061 19.7239ZM3.51026 20.9457L2.50287 21.5476L2.83078 22.1344C3.01108 22.4572 3.18912 22.6904 3.2263 22.6528C3.26349 22.6152 3.18498 22.4164 3.05127 22.2111C2.54382 21.432 3.37467 20.8967 3.95649 21.6281C4.33886 22.1087 4.42037 21.9247 4.05678 21.4019C3.83554 21.0844 3.83817 21.0447 4.09396 20.85C4.49023 20.5478 4.66451 20.5817 4.8895 21.0043C4.9988 21.2097 5.11712 21.349 5.15206 21.3137C5.2283 21.2372 4.71184 20.3289 4.59728 20.3375C4.55371 20.3408 4.06429 20.6147 3.51026 20.9457ZM30.9644 21.3483C31.005 21.414 31.3764 21.7 31.7907 21.9838C32.7782 22.6607 32.7606 22.682 31.2803 22.604C29.7493 22.5231 29.7305 22.6004 31.0579 23.5173C31.63 23.9124 32.098 24.1816 32.0976 24.1155C32.0976 24.0495 31.7588 23.7631 31.3445 23.4793C30.2661 22.7399 30.2909 22.6946 31.7122 22.8106C33.2466 22.9358 33.2744 22.8611 32.036 21.9391C31.1285 21.2638 30.8018 21.0835 30.9644 21.3483ZM4.77194 22.812C4.26449 23.1913 3.84906 23.5623 3.84906 23.6365C3.84906 23.8627 4.0857 23.7879 4.36928 23.4724C4.73438 23.0667 5.01345 23.0963 5.12764 23.5531C5.16107 23.6645 5.1652 23.7827 5.13966 23.8962C5.11412 24.0096 5.05965 24.1145 4.9819 24.2005C4.84931 24.3476 4.74339 24.5635 4.74565 24.6805C4.74827 24.7974 4.91504 24.6238 5.11637 24.2948C5.36014 23.8968 5.57349 23.7108 5.75378 23.7388C6.30894 23.8251 6.60003 23.2548 6.28114 22.7056C5.88975 22.0316 5.80825 22.0374 4.77194 22.812ZM6.07418 22.7148C6.42613 23.3763 5.89576 23.8088 5.31394 23.3349C4.97214 23.0563 4.97101 23.0476 5.24859 22.7389C5.60016 22.3481 5.87548 22.34 6.07418 22.7148ZM29.2734 23.4149C29.2734 23.6298 31.0125 25.3153 31.0838 25.1695C31.118 25.0997 30.7247 24.6448 30.2098 24.158C29.6948 23.6711 29.2734 23.337 29.2734 23.4149ZM6.39533 24.5882C5.501 25.539 5.50213 25.5334 6.07944 26.0894C6.32471 26.3258 6.52529 26.4694 6.52529 26.4093C6.52529 26.3491 6.35326 26.1506 6.14292 25.9686L5.76092 25.6379L6.13766 25.282C6.50651 24.9333 6.52266 24.9315 6.92869 25.1928L7.34299 25.4595L6.97902 25.0604L6.61506 24.6615L6.93846 24.3364L7.26148 24.0116L7.6093 24.3402C7.96275 24.6744 8.24972 24.7853 8.09083 24.5262C7.93984 24.3564 7.76856 24.2067 7.58 24.0806L7.15744 23.7777L6.39533 24.5882ZM27.2808 25.1839L26.8488 25.5388L27.5482 26.5244C28.3577 27.6656 28.3107 27.6482 28.9815 27.0541C29.2993 26.7724 29.3714 26.6584 29.1705 26.7556C29.0108 26.8265 28.8685 26.9309 28.7528 27.0619C28.5995 27.3108 28.3212 27.2209 28.0395 26.8314C27.7758 26.4672 27.7788 26.4556 28.1882 26.0747L28.6044 25.6878L28.1409 25.9968C27.6951 26.2939 27.668 26.2953 27.4348 26.0361C27.1046 25.6693 27.126 25.5566 27.6008 25.1655C27.8258 24.9803 27.9426 24.8287 27.8611 24.8287C27.7792 24.8287 27.5182 24.9887 27.2808 25.1839ZM8.42475 25.6495C7.37004 26.2251 7.6679 28.1082 8.81313 28.1082C9.12714 28.1082 9.66614 27.2614 9.45617 27.0984C9.01784 26.758 8.8274 26.708 9.08056 26.9996C9.31607 27.271 9.31532 27.3096 9.06742 27.64C8.55697 28.3207 7.6585 27.3214 8.0112 26.4651C8.32559 25.7025 9.10348 25.4837 9.78784 25.9657C9.98729 26.1062 10.0917 26.1323 10.026 26.0251C9.93058 25.8704 9.02986 25.3999 8.87172 25.4224C8.71885 25.4904 8.56974 25.5662 8.42475 25.6495ZM24.8235 26.7234L24.4866 26.9981L25.047 28.0391C25.355 28.6118 25.6258 29.1047 25.6484 29.1347C25.7652 29.2901 26.7358 28.4935 26.8924 28.1134C27.369 26.9565 25.8174 25.9142 24.8235 26.7234ZM10.5593 27.4456C10.0699 28.3546 9.87348 28.8559 10.0072 28.8559C10.1274 28.8559 11.1656 26.7443 11.0852 26.6634C11.048 26.6258 10.811 26.9778 10.5593 27.4456ZM26.4428 26.9401C27.0085 27.5509 26.5957 28.8559 25.8358 28.8559C25.485 28.8559 24.7743 27.0103 25.0485 26.8095C25.2604 26.6662 25.5147 26.6009 25.7689 26.6247C26.0229 26.6485 26.261 26.7599 26.4428 26.9401ZM11.791 27.5824C11.723 27.8545 11.8019 28.0772 12.0854 28.4164C12.6947 29.1444 12.3998 29.6616 11.5577 29.342C11.1757 29.1972 11.1378 29.2035 11.2907 29.3885C12.0306 30.2853 12.9482 29.2104 12.2522 28.2617C11.7523 27.5799 12.3052 26.9532 12.8889 27.5402C13.0083 27.6603 13.0673 27.6656 13.0673 27.5563C13.0673 27.0713 11.9127 27.0949 11.791 27.5824ZM22.7528 27.5209C22.4703 27.6346 22.4208 27.7356 22.497 28.0409C22.6596 28.6927 23.2035 30.0765 23.2708 30.0088C23.3061 29.9735 23.2659 29.7626 23.1817 29.5402C22.858 28.6834 23.4225 28.4664 24.0828 29.1938C24.3168 29.4512 24.5448 29.6244 24.5907 29.5787C24.6361 29.5329 24.4675 29.2739 24.2162 29.0032C23.898 28.6607 23.806 28.4634 23.9142 28.3546C24.4765 27.7893 23.6171 27.1726 22.7528 27.5209ZM23.5938 27.6898C23.6565 27.7472 23.7046 27.8189 23.7339 27.8989C23.7636 27.9789 23.773 28.0648 23.7624 28.1494C23.7515 28.234 23.7207 28.3147 23.6727 28.3848C23.6242 28.4548 23.56 28.5121 23.4849 28.5518C23.0416 28.7905 22.9218 28.7428 22.7547 28.2606C22.5455 27.656 23.1506 27.244 23.5938 27.6898ZM14.2238 27.9276C14.3771 28.0318 14.3703 28.2425 14.1889 29.0173C13.9391 30.0835 13.9038 30.4572 14.0694 30.2907C14.1303 30.2297 14.2824 29.7307 14.4082 29.1816C14.6216 28.2497 14.6636 28.1837 15.0396 28.1892C15.6008 28.1971 15.345 28.0155 14.6283 27.8969C14.2794 27.8391 14.1122 27.8517 14.2234 27.9276M20.6126 28.0621C20.5209 28.0784 20.433 28.1105 20.3523 28.1569C20.3523 28.1715 20.4529 28.7108 20.5754 29.3555C20.6978 30.0001 20.7985 30.5482 20.7985 30.5733C20.7985 30.6399 22.0403 30.3488 22.1266 30.2619C22.1668 30.2215 21.9276 30.2323 21.5948 30.2858C21.0468 30.3739 20.981 30.35 20.8961 30.0309C20.7395 29.442 20.7838 29.3051 21.1328 29.3027C21.3285 29.2983 21.52 29.2455 21.6906 29.1489C21.8555 29.037 21.7589 29.0084 21.3191 29.039C20.4593 29.099 20.3925 28.2422 21.2447 28.0908C21.7323 28.0041 21.7371 27.9982 21.3191 27.996C21.0817 27.9936 20.8451 28.0159 20.6126 28.0621ZM16.0301 28.2955C15.9313 28.6459 15.8412 30.6508 15.9253 30.6508C15.9888 30.6508 16.041 30.5217 16.041 30.3639C16.041 29.8934 16.2055 29.6039 16.4726 29.6039C16.8219 29.6039 17.0811 29.8997 17.0811 30.2979C17.0811 30.4822 17.1385 30.6689 17.2084 30.7121C17.3703 30.8126 17.2362 30.0369 17.0514 29.8007C16.959 29.6831 17.0153 29.5203 17.22 29.3147C17.6419 28.8906 17.4462 28.258 16.8936 28.258C16.802 28.258 16.8474 28.3466 16.9947 28.4548C17.4916 28.8203 16.9992 29.6268 16.4162 29.4018C16.2198 29.3261 16.1717 29.1751 16.2175 28.7798C16.2626 28.3931 16.112 28.0049 16.0297 28.2953M18.2721 28.9683C18.2759 30.5724 18.3803 30.8003 19.1079 30.8003C19.4651 30.8003 19.7573 30.73 19.7573 30.6441C19.7573 30.5558 19.5158 30.5072 19.1999 30.5321C18.3623 30.5979 18.3273 29.585 19.1627 29.4366L19.6829 29.3441L19.1251 29.3244C18.6121 29.3063 18.5677 29.2701 18.5677 28.8652C18.5677 28.4671 18.6203 28.4199 19.1251 28.3669C19.636 28.3132 19.6236 28.3061 18.9764 28.2831L18.2703 28.258L18.2721 28.9683Z" fill="#040404"/>
</g>
</svg>
