<svg width="32" height="31" viewBox="0 0 32 31" fill="none" xmlns="http://www.w3.org/2000/svg">
<path fill-rule="evenodd" clip-rule="evenodd" d="M14.473 0.0806424C1.4379 1.47643 -4.18699 17.0454 5.01956 26.2478C13.7353 34.9597 28.3703 30.5274 30.9674 18.3892C33.0551 8.63134 24.3947 -0.981752 14.473 0.0806424ZM18.7675 0.638437C30.3718 2.99092 34.9401 17.1136 26.8686 25.684C17.509 35.6224 0.827117 29.0427 0.827117 15.4127C0.827117 5.92514 9.52264 -1.23578 18.7675 0.638437ZM14.3702 1.2518C3.80433 2.43737 -1.82164 14.2363 3.92308 23.162C9.85303 32.3757 23.6949 31.5702 28.617 21.725C33.5883 11.7814 25.3998 0.0142861 14.3702 1.2518ZM18.533 1.75756C29.0178 3.78882 33.382 16.5366 26.347 24.5817C19.8879 31.9685 7.85771 30.4598 3.44691 21.7096C-1.75972 11.3816 7.18 -0.441969 18.533 1.75756ZM18.4781 9.82184C17.1793 12.7288 16.1044 15.07 16.0892 15.0245C16.074 14.979 16.4332 12.9397 16.8872 10.4927C17.3413 8.04569 17.6932 6.024 17.669 6.00004C17.5997 5.93078 14.1134 9.2887 14.1134 9.42564C14.1325 9.56729 14.1697 9.70592 14.2239 9.83818C14.4815 10.5117 15.8687 14.9244 15.8339 14.9591C15.813 14.9801 14.669 12.7093 13.2917 9.91292C11.9145 7.11654 10.7596 4.81086 10.725 4.78956C10.6411 4.73758 6.46378 8.29611 6.46378 8.4195C6.46378 8.47253 7.38887 9.17861 8.51954 9.9885C9.65024 10.7984 11.6945 12.2694 13.0624 13.2573C14.4303 14.2451 15.6559 15.1176 15.786 15.1961C16.019 15.3367 25.3783 8.2661 25.2845 8.02037C25.2587 7.95318 20.9129 4.52998 20.8593 4.53475C20.8484 4.53568 19.7768 6.91488 18.4781 9.82184ZM6.24424 17.2089C6.12971 17.5072 6.29044 17.6856 6.64276 17.6517C7.17707 17.6002 7.20449 17.0549 6.67274 17.0549C6.43907 17.0549 6.28157 17.1115 6.24424 17.2089ZM7.74736 17.3628C7.74736 17.6702 7.76276 17.6819 8.13239 17.6513C8.46616 17.6237 8.51747 17.5853 8.51747 17.3628C8.51747 17.1403 8.46616 17.102 8.13239 17.0744C7.76276 17.0436 7.74736 17.0555 7.74736 17.3628ZM9.28759 17.3628C9.28759 17.6702 9.30299 17.6819 9.67266 17.6513C10.0064 17.6237 10.0577 17.5853 10.0577 17.3628C10.0577 17.1403 10.0064 17.102 9.67266 17.0744C9.30299 17.0436 9.28759 17.0555 9.28759 17.3628ZM10.7647 17.2026C10.6421 17.5217 10.805 17.685 11.2121 17.6513C11.5467 17.6237 11.598 17.5854 11.598 17.3628C11.598 17.0479 10.8773 16.9093 10.7647 17.2026ZM12.3025 17.2089C12.1912 17.4988 12.3483 17.6707 12.7242 17.6707C13.0586 17.6707 13.0868 17.6469 13.0868 17.3628C13.0868 17.0129 12.4275 16.8835 12.3025 17.2089ZM13.8244 17.3372C13.8772 17.7955 14.6271 17.8253 14.6271 17.3691C14.6271 17.0701 14.6068 17.0549 14.2095 17.0549C13.8146 17.0549 13.7936 17.0703 13.8244 17.3372ZM15.3647 17.3372C15.4174 17.7955 16.1673 17.8253 16.1673 17.3691C16.1673 17.0701 16.1471 17.0549 15.7497 17.0549C15.3548 17.0549 15.3339 17.0703 15.3647 17.3372ZM16.9049 17.3372C16.9335 17.5851 16.9811 17.6195 17.2968 17.6195C17.6126 17.6195 17.6602 17.5851 17.6887 17.3372C17.7195 17.0695 17.6992 17.0549 17.2968 17.0549C16.8945 17.0549 16.8741 17.0695 16.9049 17.3372ZM18.4263 17.3691C18.4263 17.8253 19.1762 17.7955 19.2289 17.3372C19.2597 17.0702 19.2388 17.0549 18.8439 17.0549C18.4465 17.0549 18.4263 17.0703 18.4263 17.3691ZM19.9665 17.3691C19.9665 17.8253 20.7164 17.7955 20.7692 17.3372C20.8 17.0702 20.779 17.0549 20.3841 17.0549C19.9868 17.0549 19.9665 17.0703 19.9665 17.3691ZM21.5068 17.3628C21.5068 17.6702 21.5222 17.6819 21.8918 17.6513C22.2256 17.6237 22.2769 17.5853 22.2769 17.3628C22.2769 17.1403 22.2256 17.102 21.8918 17.0744C21.5222 17.0436 21.5068 17.0555 21.5068 17.3628ZM23.0115 17.1319C22.8439 17.4029 23.0235 17.6192 23.4162 17.6192C23.7755 17.6192 23.8171 17.5925 23.8171 17.3626C23.8171 17.0996 23.1496 16.9087 23.0115 17.1319ZM24.5217 17.2086C24.4072 17.5069 24.5679 17.6854 24.9203 17.6514C25.4547 17.6 25.482 17.0547 24.9503 17.0547C24.7167 17.0547 24.5592 17.1112 24.5217 17.2086ZM9.80097 20.4418C9.80097 22.0071 9.81043 22.0841 10.0032 22.0841C10.1917 22.0841 10.2073 21.9994 10.2342 20.834L10.263 19.5839L11.2247 20.834C11.9837 21.8206 12.2385 22.0841 12.4338 22.0841H12.6812L12.6529 20.4688C12.6277 19.0251 12.6056 18.8498 12.445 18.8189C12.2815 18.7876 12.2653 18.9012 12.2653 20.075C12.2653 20.7848 12.2306 21.3631 12.1882 21.3606C12.1459 21.358 11.6784 20.7803 11.1494 20.0776C9.8282 18.3224 9.80086 18.3301 9.80086 20.4422M13.3692 18.858C13.1643 19.0676 13.2845 22.0844 13.4975 22.0844C13.6931 22.0844 13.7028 22.016 13.7028 20.6475V19.2103H14.3575C15.4091 19.2103 15.6009 19.8393 14.6743 20.249C14.1146 20.4965 14.1084 20.4061 14.7483 21.3222C15.1987 21.9671 15.3259 22.0844 15.5732 22.0844H15.8658L15.3027 21.3401L14.7393 20.596L15.0908 20.4155C15.6694 20.1184 15.8295 19.5526 15.463 19.1001C15.2658 18.8567 13.5627 18.6598 13.3692 18.858ZM15.9619 19.0051C15.9619 19.183 16.0304 19.2103 16.4753 19.2103H16.9888V20.6473C16.9888 22.0158 16.9986 22.0843 17.1941 22.0843C17.3897 22.0843 17.3995 22.0158 17.3995 20.6473V19.2103H17.913C18.3578 19.2103 18.4263 19.183 18.4263 19.0051C18.4263 18.8112 18.3578 18.7998 17.1941 18.7998C16.0304 18.7998 15.9619 18.8112 15.9619 19.0051ZM19.4856 18.9992C18.4497 19.4694 18.3716 21.4241 19.3683 21.9399C20.5619 22.5568 21.8161 21.8967 21.8982 20.6081C21.9906 19.155 20.8374 18.3858 19.4856 18.9992ZM20.7163 19.2172C21.652 19.4769 21.8099 21.2599 20.932 21.6595C19.986 22.0906 19.23 21.6414 19.1642 20.61C19.0915 19.467 19.6882 18.9319 20.7163 19.2172ZM8.42875 23.3872C8.27588 23.54 8.35776 25.4713 8.51717 25.4713C8.63158 25.4713 8.67117 25.3507 8.67117 25.0018C8.67117 24.3953 8.92223 24.4097 9.26787 25.0361C9.39997 25.2754 9.57384 25.4712 9.65433 25.4712C9.85232 25.4712 9.84293 25.4313 9.52685 24.9309C9.19015 24.3978 9.19015 24.3892 9.52501 23.859C9.67465 23.6221 9.76097 23.406 9.71694 23.3787C9.59457 23.3032 9.45308 23.4326 9.1965 23.8546C8.88395 24.3686 8.67117 24.3607 8.67117 23.835C8.67117 23.4452 8.56566 23.2501 8.42875 23.3872ZM10.2117 24.3885V25.4713H10.8278C11.1701 25.4713 11.4439 25.4257 11.4439 25.3687C11.4439 25.3116 11.236 25.266 10.9819 25.266C10.5222 25.266 10.5198 25.2641 10.5198 24.9068C10.5198 24.5647 10.5369 24.5476 10.8791 24.5476C11.0768 24.5476 11.2385 24.5014 11.2385 24.4449C11.2385 24.3884 11.0768 24.3423 10.8791 24.3423C10.5369 24.3423 10.5198 24.3252 10.5198 23.983C10.5198 23.6248 10.521 23.6239 10.9904 23.6239C11.6966 23.6239 11.5267 23.3752 10.794 23.3364L10.2117 23.3056V24.3885ZM11.9248 23.3826C11.816 23.4913 11.8421 24.9481 11.9565 25.162C12.0813 25.395 12.6764 25.6049 12.9428 25.5098C13.4287 25.3365 13.4973 25.1757 13.4973 24.2152C13.4973 22.9829 13.2637 22.9995 13.1892 24.2372C13.131 25.2062 13.0044 25.3849 12.5016 25.2086C12.2228 25.111 12.2128 25.0824 12.1833 24.2892C12.1542 23.5052 12.0762 23.2312 11.9248 23.3826ZM14.1136 24.3808C14.1136 25.0396 14.1543 25.4716 14.2163 25.4716C14.2728 25.4716 14.319 25.2868 14.319 25.061C14.319 24.6924 14.3451 24.6505 14.5736 24.6505C14.7673 24.6505 14.8784 24.7487 15.0378 25.061C15.1533 25.2868 15.3157 25.4716 15.3993 25.4716C15.5995 25.4716 15.5918 25.4071 15.3387 24.9981C15.1425 24.6808 15.1384 24.6363 15.2873 24.4243C15.6886 23.8516 15.422 23.4159 14.6237 23.3389L14.1136 23.2898V24.3808ZM16.0227 23.6495C15.861 24.7041 15.8489 25.4713 15.995 25.4713C16.1049 25.4713 16.1624 25.2664 16.2176 24.6773L16.2921 23.8833L16.5886 24.5363C16.9279 25.283 17.056 25.2753 17.3567 24.4882C17.6025 23.8449 17.7076 23.9242 17.7076 24.7528C17.7076 25.3465 17.7364 25.4713 17.8738 25.4713C18.0207 25.4713 18.0314 25.355 17.9657 24.4706C17.8579 23.0227 17.7519 22.9567 17.2733 24.0396L16.9534 24.7631L16.7036 24.1676C16.3098 23.2284 16.1105 23.0769 16.0227 23.6489M18.602 23.3795C18.5619 23.4195 18.529 23.9066 18.529 24.4618V25.471H19.1964C19.5729 25.471 19.8639 25.4262 19.8639 25.3684C19.8639 25.3119 19.6328 25.2657 19.3505 25.2657H18.8371V24.9065C18.8371 24.5644 18.8542 24.5473 19.1964 24.5473C19.3941 24.5473 19.5558 24.5011 19.5558 24.4446C19.5558 24.3881 19.3941 24.3423 19.1964 24.3423C18.8542 24.3423 18.8371 24.3252 18.8371 23.983C18.8371 23.6248 18.8383 23.6239 19.3077 23.6239C19.6383 23.6239 19.7657 23.5854 19.7361 23.4955C19.6899 23.3564 18.7241 23.2577 18.602 23.3801M20.249 23.3744C20.0883 23.5379 20.1593 25.4713 20.326 25.4713C20.4372 25.4713 20.48 25.3573 20.48 25.0608C20.48 24.6922 20.506 24.6502 20.7346 24.6502C20.9283 24.6502 21.0394 24.7485 21.1988 25.0608C21.3143 25.2866 21.4776 25.4713 21.5623 25.4713C21.6898 25.4713 21.68 25.4 21.5053 25.0577C21.3127 24.68 21.3079 24.6245 21.4518 24.4187C21.654 24.1302 21.6541 23.6857 21.4518 23.5181C21.2694 23.3667 20.3626 23.2583 20.2487 23.3741M22.1226 24.3848C22.1226 25.322 22.1457 25.471 22.2907 25.471C22.4307 25.471 22.4481 25.3941 22.3953 25.0092C22.3391 24.5988 22.3541 24.5473 22.531 24.5473C22.6584 24.5473 22.8276 24.7137 23.0008 25.0092C23.1498 25.2632 23.3365 25.471 23.4159 25.471C23.5776 25.471 23.6035 25.3556 23.4739 25.2093C23.363 25.0602 23.2609 24.9047 23.1679 24.7438L22.9482 24.3757L23.2461 23.9061C23.5196 23.4751 23.547 23.3157 23.3474 23.3157C23.3057 23.3157 23.1498 23.5235 23.0009 23.7776C22.6553 24.3672 22.4528 24.3787 22.411 23.8112C22.3395 22.842 22.1226 23.2734 22.1226 24.3848ZM15.1392 23.8265C15.2788 24.0873 14.9286 24.4728 14.5951 24.4254C14.4167 24.4 14.3641 24.3141 14.3385 24.0085C14.3004 23.5497 14.9158 23.4097 15.1392 23.8265ZM21.2827 23.9563C21.3078 24.1738 21.2568 24.2642 21.0583 24.3547C20.671 24.531 20.4802 24.4074 20.4802 23.9799C20.4802 23.4774 21.2251 23.4555 21.2827 23.9563Z" fill="#040404"/>
</svg>
